<svg width="14" height="15" viewBox="0 0 14 15" fill="none" xmlns="http://www.w3.org/2000/svg">
<path fill-rule="evenodd" clip-rule="evenodd" d="M13.75 6.62461V13.125C13.75 13.7463 13.2463 14.25 12.625 14.25H9.8125C9.19118 14.25 8.6875 13.7463 8.6875 13.125V10.3125C8.6875 10.0018 8.43566 9.75 8.125 9.75H5.875C5.56434 9.75 5.3125 10.0018 5.3125 10.3125V13.125C5.3125 13.7463 4.80882 14.25 4.1875 14.25H1.375C0.75368 14.25 0.25 13.7463 0.25 13.125V6.62461C0.249952 6.30982 0.381797 6.0094 0.613516 5.79633L6.23852 0.489141L6.24625 0.481406C6.6754 0.0911258 7.33093 0.0911258 7.76008 0.481406C7.76248 0.484157 7.76506 0.486742 7.76781 0.489141L13.3928 5.79633C13.6222 6.01052 13.7517 6.31078 13.75 6.62461Z" fill="white"/>
</svg>
