<svg width="16" height="13" viewBox="0 0 16 13" fill="none" xmlns="http://www.w3.org/2000/svg">
<path fill-rule="evenodd" clip-rule="evenodd" d="M15.3125 12.125C15.3125 12.4357 15.0607 12.6875 14.75 12.6875H1.25C0.93934 12.6875 0.6875 12.4357 0.6875 12.125V0.875C0.6875 0.56434 0.93934 0.3125 1.25 0.3125C1.56066 0.3125 1.8125 0.56434 1.8125 0.875V7.51039L5.37945 4.39062C5.5795 4.21551 5.87483 4.20437 6.0875 4.36391L10.2226 7.46539L14.3795 3.82812C14.528 3.68111 14.7457 3.62855 14.945 3.69162C15.1442 3.7547 15.292 3.92301 15.3289 4.12871C15.3657 4.3344 15.2855 4.54357 15.1205 4.67188L10.6205 8.60938C10.4205 8.78449 10.1252 8.79563 9.9125 8.63609L5.77742 5.53602L1.8125 9.00523V11.5625H14.75C15.0607 11.5625 15.3125 11.8143 15.3125 12.125Z" fill="#9EABB8"/>
</svg>
