<svg width="16" height="15" viewBox="0 0 16 15" fill="none" xmlns="http://www.w3.org/2000/svg">
<path fill-rule="evenodd" clip-rule="evenodd" d="M15.6973 6.21559C15.5581 5.78637 15.1758 5.48189 14.7263 5.44216L10.5504 5.08216L8.91357 1.18966C8.73931 0.772014 8.33111 0.500031 7.87857 0.500031C7.42603 0.500031 7.01783 0.772014 6.84357 1.18966L5.21162 5.08216L1.03084 5.44426C0.57948 5.48219 0.194889 5.78711 0.0550206 6.21792C-0.0848475 6.64873 0.0472897 7.12141 0.39029 7.41723L3.56209 10.189L2.61146 14.305C2.50869 14.7454 2.67959 15.2045 3.04529 15.4705C3.41099 15.7365 3.90041 15.7577 4.28771 15.5243L7.87365 13.3446L11.4673 15.5243C11.8546 15.7577 12.344 15.7365 12.7097 15.4705C13.0754 15.2045 13.2463 14.7454 13.1436 14.305L12.1936 10.1847L15.3647 7.41723C15.7077 7.12037 15.8389 6.64656 15.6973 6.21559ZM14.6272 6.56716L11.4561 9.33466C11.1416 9.60824 11.0041 10.0333 11.0989 10.4393L12.0516 14.5624L8.46076 12.3827C8.10361 12.1652 7.65494 12.1652 7.29779 12.3827L3.71185 14.5624L4.65826 10.4421C4.75305 10.0361 4.61559 9.61106 4.30107 9.33747L1.12857 6.57137C1.12831 6.56927 1.12831 6.56715 1.12857 6.56505L5.30795 6.20364C5.7238 6.16699 6.08516 5.90307 6.24662 5.51809L7.87857 1.63052L9.50982 5.51809C9.67128 5.90307 10.0326 6.16699 10.4485 6.20364L14.6286 6.56505C14.6286 6.56505 14.6286 6.56926 14.6286 6.56997L14.6272 6.56716Z" fill="#9EABB8"/>
</svg>
