<svg width="15" height="14" viewBox="0 0 15 14" fill="none" xmlns="http://www.w3.org/2000/svg">
<path fill-rule="evenodd" clip-rule="evenodd" d="M14.5561 13.7206C13.4853 11.8693 11.835 10.5418 9.90916 9.91251C11.8672 8.74686 12.8052 6.41667 12.2007 4.21955C11.5962 2.02244 9.5983 0.499969 7.31955 0.499969C5.0408 0.499969 3.04289 2.02244 2.43841 4.21955C1.83394 6.41667 2.77189 8.74686 4.72994 9.91251C2.80408 10.5411 1.15385 11.8686 0.0829868 13.7206C-0.0239231 13.895 -0.0278053 14.1136 0.0728477 14.2916C0.173501 14.4696 0.362831 14.5789 0.567318 14.5772C0.771804 14.5754 0.959231 14.4628 1.05682 14.2831C2.3815 11.9938 4.72291 10.6269 7.31955 10.6269C9.91619 10.6269 12.2576 11.9938 13.5823 14.2831C13.6799 14.4628 13.8673 14.5754 14.0718 14.5772C14.2763 14.5789 14.4656 14.4696 14.5663 14.2916C14.6669 14.1136 14.663 13.895 14.5561 13.7206ZM3.38205 5.56438C3.38205 3.38976 5.14493 1.62688 7.31955 1.62688C9.49417 1.62688 11.257 3.38976 11.257 5.56438C11.257 7.739 9.49417 9.50188 7.31955 9.50188C5.14589 9.49956 3.38437 7.73804 3.38205 5.56438Z" fill="#9EABB8"/>
</svg>
