<svg width="15" height="14" viewBox="0 0 15 14" fill="none" xmlns="http://www.w3.org/2000/svg">
<path d="M11.0006 8.89628H11.0076M12.9444 1.00244H2.98889C2.1177 1.00244 1.6821 1.00244 1.34935 1.17198C1.05665 1.32112 0.818679 1.55909 0.669548 1.85179C0.5 2.18454 0.5 2.62013 0.5 3.49133V10.958C0.5 11.8292 0.5 12.2648 0.669548 12.5976C0.818679 12.8902 1.05665 13.1282 1.34935 13.2773C1.6821 13.4469 2.11769 13.4469 2.98889 13.4469H12.0111C12.8823 13.4469 13.3179 13.4469 13.6507 13.2773C13.9433 13.1282 14.1813 12.8902 14.3304 12.5976C14.5 12.2648 14.5 11.8292 14.5 10.958V6.60246C14.5 5.73127 14.5 5.29565 14.3304 4.9629C14.1813 4.6702 13.9433 4.43223 13.6507 4.28309C13.3179 4.11355 12.8823 4.11355 12.0111 4.11355H3.61111M11.3506 8.89628C11.3506 9.08956 11.1939 9.24628 11.0006 9.24628C10.8073 9.24628 10.6506 9.08956 10.6506 8.89628C10.6506 8.703 10.8073 8.54628 11.0006 8.54628C11.1939 8.54628 11.3506 8.703 11.3506 8.89628Z" stroke="white" stroke-linecap="round" stroke-linejoin="round"/>
</svg>
