<svg width="24" height="24" viewBox="0 0 24 24" fill="none" xmlns="http://www.w3.org/2000/svg">
<path fill-rule="evenodd" clip-rule="evenodd" d="M19.148 18.352L15.6274 14.8322C17.7472 12.2873 17.4903 8.5252 15.0443 6.29201C12.5984 4.05882 8.82851 4.1445 6.4865 6.4865C4.1445 8.82851 4.05882 12.5984 6.29201 15.0443C8.5252 17.4903 12.2873 17.7472 14.8322 15.6274L18.352 19.148C18.5718 19.3678 18.9282 19.3678 19.148 19.148C19.3678 18.9282 19.3678 18.5718 19.148 18.352ZM5.8125 10.875C5.8125 8.07906 8.07906 5.8125 10.875 5.8125C13.6709 5.8125 15.9375 8.07906 15.9375 10.875C15.9375 13.6709 13.6709 15.9375 10.875 15.9375C8.08034 15.9344 5.8156 13.6697 5.8125 10.875Z" fill="#9EABB8"/>
</svg>
